<svg
width="20"
height="20"
viewBox="0 0 24 24"
fill="none"
xmlns="http://www.w3.org/2000/svg"
>
    <path
        d="M20 12V20C20 20.5304 19.7893 21.0391 19.4142 21.4142C19.0391 21.7893 18.5304 22 18 22H6C5.46957 22 4.96086 21.7893 4.58579 21.4142C4.21071 21.0391 4 20.5304 4 20V12"
        stroke="currentColor"
        strokeWidth="2"
        stroke-line-cap="round"
        stroke-line-join="round"
    />

    <path
        d="M22 7H2V12H22V7Z"
        stroke="currentColor"
        strokeWidth="2"
        stroke-line-cap="round"
        stroke-line-join="round"
    />

    <path
        d="M12 22V7"
        stroke="currentColor"
        strokeWidth="2"
        stroke-line-cap="round"
        stroke-line-join="round"
    />

    <path
        d="M12 7H7.5C6.70435 7 5.94129 6.68393 5.37868 6.12132C4.81607 5.55871 4.5 4.79565 4.5 4C4.5 3.20435 4.81607 2.44129 5.37868 1.87868C5.94129 1.31607 6.70435 1 7.5 1C11 1 12 7 12 7Z"
        stroke="currentColor"
        strokeWidth="2"
        stroke-line-cap="round"
        stroke-line-join="round"
    />

    <path
        d="M12 7H16.5C17.2956 7 18.0587 6.68393 18.6213 6.12132C19.1839 5.55871 19.5 4.79565 19.5 4C19.5 3.20435 19.1839 2.44129 18.6213 1.87868C18.0587 1.31607 17.2956 1 16.5 1C13 1 12 7 12 7Z"
        stroke="currentColor"
        strokeWidth="2"
        stroke-line-cap="round"
        stroke-line-join="round"
    />
</svg>